<mxfile host="app.diagrams.net" modified="2020-10-13T15:15:02.108Z" agent="5.0 (Macintosh; Intel Mac OS X 10_15_3) AppleWebKit/537.36 (KHTML, like Gecko) Chrome/86.0.4240.75 Safari/537.36" etag="QYl6ZwAKSiNU91rMgPIO" version="13.7.9" type="github">
  <diagram id="cohmEAqBEMjF1zSoYcSZ" name="Page-1">
    <mxGraphModel dx="2037" dy="1101" grid="1" gridSize="10" guides="1" tooltips="1" connect="1" arrows="1" fold="1" page="1" pageScale="1" pageWidth="4681" pageHeight="3300" math="0" shadow="0">
      <root>
        <mxCell id="0" />
        <mxCell id="1" parent="0" />
        <mxCell id="jTf1APUEV42KsB9cT_s0-1" value="textbook" style="rounded=0;whiteSpace=wrap;html=1;" vertex="1" parent="1">
          <mxGeometry x="350" y="370" width="120" height="60" as="geometry" />
        </mxCell>
        <mxCell id="jTf1APUEV42KsB9cT_s0-3" value="" style="endArrow=none;html=1;exitX=0;exitY=0;exitDx=0;exitDy=0;" edge="1" parent="1" source="jTf1APUEV42KsB9cT_s0-1" target="jTf1APUEV42KsB9cT_s0-4">
          <mxGeometry width="50" height="50" relative="1" as="geometry">
            <mxPoint x="390" y="420" as="sourcePoint" />
            <mxPoint x="310" y="300" as="targetPoint" />
          </mxGeometry>
        </mxCell>
        <mxCell id="jTf1APUEV42KsB9cT_s0-4" value="ISBN" style="ellipse;whiteSpace=wrap;html=1;" vertex="1" parent="1">
          <mxGeometry x="130" y="250" width="120" height="80" as="geometry" />
        </mxCell>
        <mxCell id="jTf1APUEV42KsB9cT_s0-5" value="" style="endArrow=none;html=1;exitX=0.25;exitY=0;exitDx=0;exitDy=0;" edge="1" parent="1" source="jTf1APUEV42KsB9cT_s0-1" target="jTf1APUEV42KsB9cT_s0-6">
          <mxGeometry width="50" height="50" relative="1" as="geometry">
            <mxPoint x="390" y="420" as="sourcePoint" />
            <mxPoint x="430" y="320" as="targetPoint" />
          </mxGeometry>
        </mxCell>
        <mxCell id="jTf1APUEV42KsB9cT_s0-6" value="category" style="ellipse;whiteSpace=wrap;html=1;" vertex="1" parent="1">
          <mxGeometry x="270" y="250" width="120" height="80" as="geometry" />
        </mxCell>
        <mxCell id="jTf1APUEV42KsB9cT_s0-7" value="" style="endArrow=none;html=1;exitX=0.5;exitY=0;exitDx=0;exitDy=0;" edge="1" parent="1" source="jTf1APUEV42KsB9cT_s0-1" target="jTf1APUEV42KsB9cT_s0-8">
          <mxGeometry width="50" height="50" relative="1" as="geometry">
            <mxPoint x="390" y="420" as="sourcePoint" />
            <mxPoint x="440" y="330" as="targetPoint" />
          </mxGeometry>
        </mxCell>
        <mxCell id="jTf1APUEV42KsB9cT_s0-8" value="title" style="ellipse;whiteSpace=wrap;html=1;" vertex="1" parent="1">
          <mxGeometry x="410" y="250" width="120" height="80" as="geometry" />
        </mxCell>
        <mxCell id="jTf1APUEV42KsB9cT_s0-9" value="" style="endArrow=none;html=1;exitX=0.75;exitY=0;exitDx=0;exitDy=0;" edge="1" parent="1" source="jTf1APUEV42KsB9cT_s0-1" target="jTf1APUEV42KsB9cT_s0-10">
          <mxGeometry width="50" height="50" relative="1" as="geometry">
            <mxPoint x="570" y="320" as="sourcePoint" />
            <mxPoint x="440" y="370" as="targetPoint" />
          </mxGeometry>
        </mxCell>
        <mxCell id="jTf1APUEV42KsB9cT_s0-10" value="description" style="ellipse;whiteSpace=wrap;html=1;strokeWidth=3;" vertex="1" parent="1">
          <mxGeometry x="560" y="250" width="120" height="80" as="geometry" />
        </mxCell>
        <mxCell id="jTf1APUEV42KsB9cT_s0-89" value="company" style="rounded=0;whiteSpace=wrap;html=1;strokeWidth=1;" vertex="1" parent="1">
          <mxGeometry x="790" y="460" width="120" height="60" as="geometry" />
        </mxCell>
        <mxCell id="jTf1APUEV42KsB9cT_s0-90" value="" style="endArrow=none;html=1;exitX=0;exitY=0;exitDx=0;exitDy=0;" edge="1" parent="1" source="jTf1APUEV42KsB9cT_s0-89" target="jTf1APUEV42KsB9cT_s0-91">
          <mxGeometry width="50" height="50" relative="1" as="geometry">
            <mxPoint x="830" y="520" as="sourcePoint" />
            <mxPoint x="760" y="400" as="targetPoint" />
          </mxGeometry>
        </mxCell>
        <mxCell id="jTf1APUEV42KsB9cT_s0-91" value="name" style="ellipse;whiteSpace=wrap;html=1;" vertex="1" parent="1">
          <mxGeometry x="570" y="340.0000000000002" width="120" height="80" as="geometry" />
        </mxCell>
        <mxCell id="jTf1APUEV42KsB9cT_s0-92" value="" style="endArrow=none;html=1;exitX=0.25;exitY=0;exitDx=0;exitDy=0;" edge="1" parent="1" source="jTf1APUEV42KsB9cT_s0-89" target="jTf1APUEV42KsB9cT_s0-93">
          <mxGeometry width="50" height="50" relative="1" as="geometry">
            <mxPoint x="830" y="520" as="sourcePoint" />
            <mxPoint x="840" y="410" as="targetPoint" />
          </mxGeometry>
        </mxCell>
        <mxCell id="jTf1APUEV42KsB9cT_s0-93" value="address" style="ellipse;whiteSpace=wrap;html=1;" vertex="1" parent="1">
          <mxGeometry x="710" y="340.0000000000002" width="120" height="80" as="geometry" />
        </mxCell>
        <mxCell id="jTf1APUEV42KsB9cT_s0-94" value="" style="endArrow=none;html=1;exitX=0.75;exitY=0;exitDx=0;exitDy=0;" edge="1" parent="1" source="jTf1APUEV42KsB9cT_s0-89" target="jTf1APUEV42KsB9cT_s0-95">
          <mxGeometry width="50" height="50" relative="1" as="geometry">
            <mxPoint x="830" y="520" as="sourcePoint" />
            <mxPoint x="970" y="410" as="targetPoint" />
          </mxGeometry>
        </mxCell>
        <mxCell id="jTf1APUEV42KsB9cT_s0-95" value="phone number" style="ellipse;whiteSpace=wrap;html=1;strokeWidth=3;" vertex="1" parent="1">
          <mxGeometry x="870.0000000000005" y="340.0000000000002" width="120" height="80" as="geometry" />
        </mxCell>
        <mxCell id="jTf1APUEV42KsB9cT_s0-96" value="" style="endArrow=none;html=1;exitX=0;exitY=0;exitDx=0;exitDy=0;" edge="1" parent="1" source="jTf1APUEV42KsB9cT_s0-95" target="jTf1APUEV42KsB9cT_s0-97">
          <mxGeometry width="50" height="50" relative="1" as="geometry">
            <mxPoint x="830" y="520" as="sourcePoint" />
            <mxPoint x="870" y="300" as="targetPoint" />
          </mxGeometry>
        </mxCell>
        <mxCell id="jTf1APUEV42KsB9cT_s0-97" value="number" style="ellipse;whiteSpace=wrap;html=1;" vertex="1" parent="1">
          <mxGeometry x="800" y="250" width="120" height="80" as="geometry" />
        </mxCell>
        <mxCell id="jTf1APUEV42KsB9cT_s0-98" value="" style="endArrow=none;html=1;exitX=1;exitY=0;exitDx=0;exitDy=0;" edge="1" parent="1" source="jTf1APUEV42KsB9cT_s0-95" target="jTf1APUEV42KsB9cT_s0-99">
          <mxGeometry width="50" height="50" relative="1" as="geometry">
            <mxPoint x="830" y="520" as="sourcePoint" />
            <mxPoint x="990" y="330" as="targetPoint" />
          </mxGeometry>
        </mxCell>
        <mxCell id="jTf1APUEV42KsB9cT_s0-99" value="description" style="ellipse;whiteSpace=wrap;html=1;" vertex="1" parent="1">
          <mxGeometry x="950.0000000000005" y="250" width="120" height="80" as="geometry" />
        </mxCell>
        <mxCell id="jTf1APUEV42KsB9cT_s0-104" value="person" style="rounded=0;whiteSpace=wrap;html=1;strokeWidth=1;" vertex="1" parent="1">
          <mxGeometry x="1190" y="540" width="120" height="60" as="geometry" />
        </mxCell>
        <mxCell id="jTf1APUEV42KsB9cT_s0-107" value="name" style="ellipse;whiteSpace=wrap;html=1;strokeWidth=1;" vertex="1" parent="1">
          <mxGeometry x="1190" y="340" width="120" height="80" as="geometry" />
        </mxCell>
      </root>
    </mxGraphModel>
  </diagram>
</mxfile>
